<?xml version="1.0" encoding="utf-8"?>
<svg xmlns="http://www.w3.org/2000/svg" xmlns:xlink="http://www.w3.org/1999/xlink" version= "1.1" width="600px" height="600px" viewBox="340 100 600 600">
<g id="layer1">
<g>
<g style="fill:rgb(0,0,0); fill-opacity:1.0; stroke-linejoin: miter">
<path d="M360.99023,167.56395L347.7406,176.78651L352.04132,183.0832L363.76556,175.09694L401.8721,176.14539L398.17038,310.68875L352.18707,309.42365L353.01294,279.4068L361.59662,269.41678L356.63385,263.95407L345.64978,276.0085L344.53107,316.66962L405.41635,318.34476L409.5281,168.89938L360.99023,167.56395 Z"/>
</g>
</g>
<g>
<g style="fill:rgb(0,0,0); fill-opacity:1.0; stroke-linejoin: miter">
<path d="M525.72876,323.13757Q535.82983,323.19397,543.0514,329.67456Q550.3229,336.0611,550.312,345.21198Q550.301,354.36285,543.01416,360.87067Q535.7274,367.2398,525.5366,367.22766L489.14102,367.18402L489.19382,323.09344L525.58936,323.1371Q525.6592,323.13715,525.72876,323.13757 Z M525.7798,315.37326Q525.6892,315.37277,525.59875,315.3727L485.32083,315.32446L485.3207,315.3938L481.43863,315.38916L481.3198,414.6622L489.08414,414.67148L489.13168,374.94836L525.52734,374.99207Q538.9763,375.00812,548.48425,366.28455Q558.06165,357.5611,558.0763,345.22125Q558.09106,332.88147,548.5348,324.13513Q539.1117,315.44772,525.7798,315.37326 Z"/>
</g>
</g>
<g style="fill:rgb(71,58,79); fill-opacity:1.0; stroke-linejoin: miter">
<path d="M436.92276,257.25018L439.50784,257.26532L442.09305,257.2805Q442.09305,257.2798,442.09305,257.27908Q439.50784,257.26532,436.92276,257.2516Q436.92276,257.2509,436.92276,257.25018"/>
</g>
<g>
<g style="fill:rgb(0,0,0); fill-opacity:1.0; stroke-linejoin: miter">
<path d="M528.4679,236.84253Q533.3214,236.86963,536.75574,239.95178Q540.2776,243.086,540.2698,247.4118Q540.26196,251.80423,536.7291,254.92587Q533.26294,258.01434,528.37146,258.00568L510.90146,257.97458L510.93918,236.81116L528.4092,236.84229Q528.4385,236.84238,528.4679,236.84253 Z M625.40906,236.54901L637.34094,263.2908Q637.34094,263.2908,637.3076,263.2907Q637.3076,263.2907,637.2743,263.32397Q635.93774,263.80725,634.4154,263.79874Q632.59985,263.7886,630.5198,263.079Q628.45776,262.40982,626.36304,261.44107Q624.235,260.57214,622.04016,259.80286Q619.64197,258.97678,617.01514,258.96213Q616.98267,258.96194,616.95044,258.96194Q616.15186,258.9605,615.2197,259.12524L625.40906,236.54901 Z M571.0249,236.88501Q579.28613,236.93112,585.13403,242.79974Q591.0134,248.70001,590.9984,257.019Q590.98376,265.33798,585.0834,271.2173Q579.1831,277.09656,570.86414,277.0818L558.01965,277.05896L558.0912,236.86182L570.93567,236.88467Q570.98035,236.88477,571.0249,236.88501 Z M478.56766,236.7208Q486.24936,237.43494,491.49472,243.16553Q496.7421,248.93158,496.72812,256.75137Q496.71432,264.53793,491.44644,270.2853Q486.17874,275.99936,478.49075,276.68445L478.56186,236.72076 Z M474.83493,236.71365L474.7639,276.67783Q467.0784,275.96536,461.83096,270.23257Q456.58365,264.46652,456.5975,256.68Q456.61148,248.8602,461.87918,243.11282Q467.147,237.39877,474.83493,236.71365 Z M697.0579,233.34892L693.36444,233.34236L693.30817,264.85455L660.5875,233.28401L656.062,233.27596L655.9772,280.9601L659.7041,280.9668L659.78125,237.64172L693.299,270.04556L693.2795,281.02658L696.9731,281.0331L697.0579,233.34892 Z M628.0437,233.29262L622.786,233.28328L608.65466,264.60406L608.65466,264.63733L608.4542,265.00305L608.48755,265.00305L601.3384,280.8629L605.43115,280.8702L612.0127,266.24054Q612.88074,264.545,613.74744,263.78122Q615.1373,262.58588,617.2422,262.59763Q618.8213,262.60645,620.8026,263.29465Q622.8645,264.03033,624.8595,264.8658Q627.0873,265.86807,629.34863,266.63742Q631.7776,267.42996,634.4673,267.445Q634.5028,267.4452,634.5382,267.44528Q636.7345,267.44922,638.5657,266.82022Q638.6323,266.78705,638.6991,266.75388Q638.79895,266.6875,638.8655,266.68768L645.22925,280.94098L649.3219,280.9483L642.09656,264.7967Q643.26294,263.86703,644.1964,262.8704Q645.26355,261.64105,646.1974,260.44482L643.23987,258.17682Q642.3727,259.30664,641.40564,260.36975Q641.0056,260.8349,640.53894,261.26666L628.0437,233.29262 Z M571.0477,233.15817Q570.9951,233.15787,570.94226,233.15778L554.371,233.12833L554.28613,280.77917L570.8574,280.80862Q580.70715,280.8262,587.7075,273.85074Q594.70776,266.87527,594.72534,257.02563Q594.7429,247.17603,587.76746,240.1756Q580.82935,233.2128,571.0477,233.15817 Z M528.4912,233.11566Q528.4535,233.11545,528.4158,233.11536L509.14896,233.08109L509.14883,233.11435L507.25217,233.11096L507.16745,280.69534L510.86105,280.7019L510.89487,261.70142L522.04236,261.72128L534.6964,275.2538Q538.1836,279.08673,540.0123,279.85535Q541.72217,280.56863,547.286,280.5997Q547.4568,280.60065,547.63135,280.60095L547.63794,276.87408Q547.4629,276.87375,547.29236,276.87277Q542.73413,276.84732,541.516,276.364Q540.25244,275.82938,537.42957,272.72968L527.1002,261.73032L528.36475,261.73254Q534.8203,261.74402,539.3865,257.55936Q543.9529,253.34146,543.9634,247.4184Q543.9739,241.5286,539.4226,237.3277Q534.8978,233.15143,528.4912,233.11566 Z M478.5732,230.33133L474.84628,230.3247L474.84164,232.98672Q465.62283,233.70245,459.28842,240.47946Q452.88712,247.32288,452.87057,256.6734Q452.85397,265.99057,459.23068,272.85675Q465.5411,279.65625,474.7573,280.40472L474.7524,283.06677L478.4794,283.07343L478.4841,280.41138Q487.7028,279.69568,494.07065,272.91876Q500.4385,266.0753,500.45505,256.75806Q500.47165,247.40753,494.1282,240.57468Q487.78458,233.74188,478.56845,232.99344L478.5732,230.33133 Z"/>
</g>
</g>
<g>
<g style="fill:rgb(0,0,0); fill-opacity:1.0; stroke-linejoin: miter">
<path d="M745.06494,367.37088L762.898,367.5572Q767.8912,367.60944,771.39087,370.8053Q774.958,374.03583,774.91187,378.4516Q774.865,382.93524,771.2312,386.09055Q767.6928,389.18863,762.7487,389.16098Q762.7105,389.1608,762.6722,389.16037L744.83936,388.97403L745.06494,367.37088 Z M579.41113,365.16412L591.3544,392.56763Q591.3544,392.56763,591.32043,392.56732Q591.32043,392.56732,591.28613,392.60083Q589.9542,393.06946,588.4468,393.06104Q586.55786,393.05048,584.3932,392.29108Q582.2943,391.58972,580.1647,390.58234Q578.0,389.67645,575.76636,388.87177Q573.29565,387.99664,570.57825,387.96832Q570.55896,387.96808,570.5398,387.96796Q569.7405,387.9635,568.81006,388.11963L579.41113,365.16412 Z M857.973,368.51764L857.54663,409.3115Q849.7079,408.5162,844.402,402.61774Q839.09644,396.68536,839.1797,388.73694Q839.26306,380.7547,844.6913,374.9344Q850.11597,369.1516,857.9636,368.51758 Z M861.77734,368.55652Q869.61646,369.35187,874.9221,375.2503Q880.22766,381.18274,880.1443,389.16504Q880.06116,397.11334,874.6328,402.93365Q869.20483,408.71988,861.3512,409.35123L861.77734,368.55652 Z M576.7626,361.8073L562.05994,393.6543L562.0596,393.68823L561.8519,394.0598L561.88586,394.06018L554.4475,410.18658L558.6255,410.2303L565.47314,395.35455Q566.3745,393.63147,567.26587,392.85944Q568.6737,391.66974,570.7792,391.68152Q572.41516,391.69067,574.47217,392.42517Q576.57043,393.19446,578.5996,394.065Q580.86475,395.10773,583.16626,395.91315Q585.6714,396.75464,588.45667,396.7837Q588.4946,396.78406,588.5322,396.7843Q590.7302,396.79657,592.5735,396.18127Q592.64185,396.148,592.7101,396.1148Q592.81213,396.04822,592.88,396.04858Q592.88025,396.04858,592.8806,396.04858L599.2506,410.6548L603.4286,410.6985L596.19574,394.14697Q597.39465,393.20837,598.3563,392.19922Q599.4564,390.9538,600.4204,389.7409L597.4214,387.39954Q596.52606,388.54523,595.5296,389.6219Q595.1171,390.09314,594.6369,390.5298L582.1293,361.86334L576.7626,361.8073 Z M610.7302,362.12833L610.69055,365.93265L627.40247,366.10727L626.93396,410.9441L630.7383,410.98383L631.2068,366.147L647.9188,366.3217L647.9586,362.51736L610.7302,362.12833 Z M654.75195,362.58835L654.71216,366.39267L671.4241,366.5673L670.95557,411.40405L674.75995,411.44382L675.2286,366.6071L691.9405,366.78177L691.9803,362.97745L654.75195,362.58835 Z M703.8355,363.03336L703.6396,381.7833Q702.17255,382.37943,701.1419,383.48972Q699.5262,385.30728,698.518,387.50485L702.0003,389.10385Q702.555,387.85757,703.5816,386.58243L703.5893,386.5825L703.3265,411.7424L734.03296,412.06326L734.07275,408.25894L707.2047,407.97818L707.4426,385.18613Q708.6979,385.3691,709.6454,385.71878Q711.4374,386.51877,713.22925,387.3528Q715.22217,388.42673,717.2185,389.19492Q719.51904,390.1022,722.0327,390.1285Q722.0609,390.1288,722.0891,390.12894Q724.09436,390.14017,725.7765,389.4542Q727.3801,388.7916,728.6821,387.7181Q729.8474,386.7451,730.9486,385.3978Q731.9127,384.15097,732.74036,382.9706L729.56946,380.83133Q728.8104,381.94437,727.94995,383.0225Q727.124,384.033,726.23267,384.80496Q725.4104,385.47586,724.31885,385.90604Q723.20996,386.38516,721.9397,386.37808Q720.3961,386.36942,718.6144,385.6426Q716.78723,384.94412,714.963,383.9738Q713.0365,383.03653,711.07446,382.23465Q709.3832,381.53763,707.4828,381.34787L707.63416,366.87778L734.5023,367.15854L734.5421,363.35422L703.8355,363.03336 Z M743.2705,363.54733L743.27014,363.58133L741.334,363.56107L740.82654,412.1343L744.5968,412.17368L744.79956,392.7783L756.17865,392.8973L768.9762,406.82327Q772.50195,410.7668,774.36194,411.56754Q776.1544,412.33365,782.1328,412.3961L782.17236,408.59177Q777.21326,408.53995,775.92773,408.017Q774.6426,407.46,771.78845,404.27084L761.34174,392.95126L762.6325,392.96475Q762.6818,392.96524,762.731,392.96555Q769.2573,393.00198,773.9204,388.80234Q778.61914,384.5372,778.68225,378.49097Q778.745,372.47876,774.1362,368.1502Q769.52747,363.82178,762.9378,363.75287L743.2705,363.54733 Z M803.8668,364.1808Q797.6184,364.14594,793.5034,367.80908Q789.3539,371.53644,789.2936,377.31097Q789.2451,381.93054,791.9679,384.7106Q795.56445,388.3831,803.71655,388.4683L814.00854,388.57578Q818.4923,388.6227,821.5521,391.64407Q824.6455,394.69986,824.59973,399.08163Q824.5547,403.39548,821.4335,406.2504Q818.36914,409.11777,813.8629,409.09262Q813.8286,409.09238,813.7942,409.09207L790.8662,408.8525L790.8264,412.65677L813.7545,412.8964Q813.8003,412.89688,813.8458,412.89713Q819.93384,412.93112,824.1223,408.99612Q828.34204,405.06567,828.4043,399.1214Q828.4667,393.14313,824.2976,388.9891Q820.1282,384.869,814.048,384.80545L803.756,384.69797Q797.33606,384.63083,794.81445,382.12457Q793.06555,380.44165,793.0979,377.3507Q793.14197,373.1388,796.15857,370.52057Q799.1831,367.9253,803.8495,367.95135Q803.89,367.95154,803.9309,367.95203L826.8251,368.19122L826.86426,364.4209L803.97034,364.1817Q803.91846,364.1811,803.8668,364.1808 Z M891.0974,365.02423L890.5886,413.6993L894.39294,413.73904L894.8552,369.51367L928.7834,402.88806L928.6663,414.0973L932.4367,414.13672L932.9454,365.46152L929.17474,365.42215L928.8387,397.58917L895.71704,365.07245L891.0974,365.02423 Z M858.04126,361.9951L858.0128,364.71246Q848.5962,365.36145,842.06995,372.22333Q835.475,379.1524,835.37537,388.6972Q835.276,398.20807,841.7245,405.27344Q848.10596,412.27023,857.50696,413.1158L857.47864,415.83322L861.28296,415.87296L861.3113,413.15555Q870.728,412.50662,877.2882,405.6451Q883.8491,398.71564,883.9485,389.20477Q884.0482,379.65997,877.6333,372.6289Q871.21826,365.59784,861.81714,364.7522L861.84546,362.03482L858.04126,361.9951 Z"/>
</g>
</g>
<g>
<g style="fill:rgb(0,0,0); fill-opacity:1.0; stroke-linejoin: miter">
<path d="M785.78394,412.57993L794.6881,470.13397 Z"/>
</g>
<g style="fill:rgb(0,0,0); fill-opacity:1.0; stroke-linejoin: miter">
<path d="M998.00024,525.6047L637.3251,533.22864 Z"/>
</g>
<g style="fill:rgb(0,0,0); fill-opacity:1.0; stroke-linejoin: miter">
<path d="M905.2586,440.72964L905.05963,440.7302Q903.68134,440.87366,903.1274,441.2829L642.7491,615.72437Q639.083,622.82336,645.0938,623.062Q646.472,622.91846,647.02606,622.50916L906.0224,449.01666Q912.6663,444.49887,905.2586,440.72964 Z"/>
</g>
<g style="fill:rgb(0,0,0); fill-opacity:1.0; stroke-linejoin: miter">
<path d="M642.14935,622.0686L642.14935,622.0686L450.7108,438.5557C449.11264,437.02383,449.05905,434.48654,450.5909,432.8884C452.1229,431.2903,454.6602,431.23666,456.25827,432.7686L456.25827,432.7686L647.6966,616.2814C649.29474,617.81335,649.3486,620.3507,647.8166,621.94885C646.2847,623.5469,643.7474,623.60046,642.14935,622.0686 Z"/>
</g>
<g style="fill:rgb(0,0,0); fill-opacity:1.0; stroke-linejoin: miter">
<path d="M912.6939,437.17374L450.9056,429.65543Q442.91855,434.42532,450.75082,437.67062L910.6109,445.1583Q921.33295,440.10666,912.6939,437.17374 Z"/>
</g>
<g style="fill:rgb(0,0,0); fill-opacity:1.0; stroke-linejoin: miter">
<path d="M704.94434,575.6689L704.94434,575.6689L648.59125,444.21368C647.71906,442.17902,648.66144,439.82245,650.696,438.95013C652.73065,438.078,655.0872,439.02045,655.95953,441.055L655.95953,441.055L712.3124,572.5103C713.1847,574.545,712.2423,576.9013,710.20764,577.7736C708.173,578.6458,705.8165,577.7034,704.94434,575.6689 Z"/>
</g>
<g style="fill:rgb(0,0,0); fill-opacity:1.0; stroke-linejoin: miter">
<path d="M521.66,501.73703L521.66,501.73703L557.4565,438.82852C558.5512,436.90445,560.9987,436.2322,562.92267,437.32712C564.84674,438.4219,565.51886,440.86923,564.42413,442.7933L564.42413,442.7933L528.6276,505.70175C527.5328,507.62576,525.0855,508.298,523.16156,507.20328C521.2375,506.10843,520.56537,503.66116,521.66,501.73703 Z"/>
</g>
<g style="fill:rgb(0,0,0); fill-opacity:1.0; stroke-linejoin: miter">
<path d="M801.3071,514.3933L801.3071,514.3933L695.4603,443.45477C693.62134,442.22235,693.12976,439.73248,694.36206,437.8935C695.5946,436.05463,698.0845,435.563,699.92334,436.7953L699.92334,436.7953L805.77026,507.73392C807.60913,508.96628,808.1007,511.4562,806.8683,513.29504C805.63574,515.13403,803.1459,515.62573,801.3071,514.3933 Z"/>
</g>
<g style="fill:rgb(0,0,0); fill-opacity:1.0; stroke-linejoin: miter">
<path d="M727.59045,462.57837L727.59045,462.57837L716.3391,570.2559C716.109,572.4578,714.1376,574.05634,711.93604,573.8261C709.73425,573.5961,708.13574,571.6248,708.36584,569.4229L708.36584,569.4229L719.6172,461.74518C719.84717,459.54346,721.8186,457.945,724.02026,458.17505C726.22205,458.4052,727.82056,460.3766,727.59045,462.57837 Z"/>
</g>
<g style="fill:rgb(0,0,0); fill-opacity:1.0; stroke-linejoin: miter">
<path d="M643.3614,616.44495L643.3614,616.44495L645.7701,445.3009C645.8012,443.08722,647.6209,441.31818,649.8344,441.3493C652.0479,441.3805,653.8172,443.20013,653.78595,445.4137L653.78595,445.4137L651.3774,616.55774C651.34625,618.77136,649.5267,620.5405,647.3133,620.5094C645.0997,620.47815,643.33026,618.65845,643.3614,616.44495 Z"/>
</g>
<g style="fill:rgb(0,0,0); fill-opacity:1.0; stroke-linejoin: miter">
<path d="M639.2435,614.2173L639.2435,614.2173L567.4025,443.5817C566.5434,441.54135,567.50116,439.191,569.54144,438.33212C571.5817,437.47305,573.9322,438.43063,574.7911,440.47092L574.7911,440.47092L646.63214,611.1067C647.491,613.14685,646.5335,615.4972,644.4932,616.3562C642.45294,617.2152,640.1026,616.25757,639.2435,614.2173 Z"/>
</g>
<g style="fill:rgb(0,0,0); fill-opacity:1.0; stroke-linejoin: miter">
<path d="M914.79877,440.11472L914.73663,440.11398L749.05005,467.77417Q745.23975,469.46872,745.5625,472.18588Q745.6073,474.59042,749.68054,475.73676L904.70306,449.8689Q914.992,441.57516,916.3875,440.96Q916.81415,440.29935,914.79877,440.11472 Z"/>
</g>
<g style="fill:rgb(0,0,0); fill-opacity:1.0; stroke-linejoin: miter">
<path d="M639.4159,608.9939L639.4159,608.9939L607.88184,440.0442C607.4757,437.86798,608.91064,435.77466,611.0868,435.36847C613.26294,434.96234,615.3562,436.39722,615.76245,438.5733L615.76245,438.5733L647.29645,607.5233C647.7027,609.69946,646.26776,611.7926,644.0916,612.19885C641.91547,612.6051,639.82214,611.17004,639.4159,608.9939 Z"/>
</g>
<g style="fill:rgb(0,0,0); fill-opacity:1.0; stroke-linejoin: miter">
<path d="M799.1505,516.75366L799.1505,516.75366L653.2603,449.88968C651.248,448.96738,650.3641,446.58832,651.28644,444.5758C652.2089,442.5633,654.5881,441.6797,656.6005,442.60205L656.6005,442.60205L802.4906,509.46597C804.50305,510.3882,805.3867,512.76733,804.4645,514.7799C803.54224,516.79224,801.16296,517.6759,799.1505,516.75366 Z"/>
</g>
<g style="fill:rgb(0,0,0); fill-opacity:1.0; stroke-linejoin: miter">
<path d="M525.029,498.62424L525.029,498.62424L647.03644,437.61414C649.0163,436.62408,651.424,437.4265,652.4141,439.40637C653.4041,441.3864,652.60175,443.79413,650.62177,444.78412L650.62177,444.78412L528.61444,505.79434C526.6346,506.7844,524.22687,505.98196,523.23663,504.00204C522.2465,502.022,523.049,499.6144,525.029,498.62424 Z"/>
</g>
<g style="fill:rgb(0,0,0); fill-opacity:1.0; stroke-linejoin: miter">
<path d="M571.67487,549.2924L571.67487,549.2924L643.7685,446.27716C645.0378,444.46344,647.53705,444.02222,649.35077,445.29144C651.16437,446.5608,651.6059,449.06003,650.33636,450.8737L650.33636,450.8737L578.24274,553.889C576.97345,555.7027,574.4742,556.1441,572.66046,554.8747C570.84686,553.6054,570.40533,551.10614,571.67487,549.2924 Z"/>
</g>
<g style="fill:rgb(0,0,0); fill-opacity:1.0; stroke-linejoin: miter">
<path d="M678.34094,592.3704L678.34094,592.3704L649.73346,458.1879C649.2719,456.0228,650.6529,453.89346,652.81793,453.43192C654.983,452.97025,657.11237,454.35123,657.57404,456.51633L657.57404,456.51633L686.1813,590.6989C686.6428,592.86395,685.2621,594.99347,683.0968,595.4549C680.93164,595.91644,678.8026,594.5356,678.34094,592.3704 Z"/>
</g>
<g style="fill:rgb(0,0,0); fill-opacity:1.0; stroke-linejoin: miter">
<path d="M692.6278,532.4357L692.6278,532.4357L654.17816,609.7853C653.1927,611.7676,650.7869,612.5758,648.8045,611.59033C646.8222,610.60486,646.014,608.19934,646.99945,606.2169L646.99945,606.2169L685.4491,528.86725C686.4346,526.8848,688.84033,526.0767,690.8229,527.0622C692.80493,528.04755,693.6134,530.4533,692.6278,532.4357 Z"/>
</g>
<g style="fill:rgb(0,0,0); fill-opacity:1.0; stroke-linejoin: miter">
<path d="M665.3923,454.26602L665.3923,454.26602L768.62,535.09534C770.3629,536.4602,770.66956,538.9795,769.3047,540.72253C767.93994,542.4656,765.42053,542.7721,763.6776,541.40735L763.6776,541.40735L660.45013,460.5779C658.7071,459.21317,658.4003,456.69382,659.7653,454.95084C661.12994,453.20786,663.6495,452.9012,665.3923,454.26602 Z"/>
</g>
<g style="fill:rgb(0,0,0); fill-opacity:1.0; stroke-linejoin: miter">
<path d="M893.5667,451.45453L893.5667,451.45453L785.08984,497.40018C783.0513,498.26352,780.699,497.311,779.83545,495.2726C778.97205,493.23422,779.9247,490.8818,781.96326,490.0184L781.96326,490.0184L890.44037,444.0728C892.4786,443.20947,894.831,444.1621,895.6944,446.20044C896.5578,448.23883,895.60504,450.59113,893.5667,451.45453 Z"/>
</g>
<g style="fill:rgb(0,0,0); fill-opacity:1.0; stroke-linejoin: miter">
<path d="M746.65894,464.44354L746.65894,464.44354L812.47,436.52734C814.50806,435.66284,816.86084,436.614,817.72534,438.65204C818.58984,440.69006,817.63855,443.04297,815.6006,443.9074L815.6006,443.9074L749.7897,471.82385C747.7516,472.68826,745.39856,471.7369,744.5342,469.69907C743.6697,467.661,744.621,465.30804,746.65894,464.44354 Z"/>
</g>
<g style="fill:rgb(0,0,0); fill-opacity:1.0; stroke-linejoin: miter">
<path d="M461.65976,433.11337L461.65976,433.11337L584.03436,468.73746C586.15985,469.35617,587.3813,471.58084,586.7625,473.7064C586.14386,475.83194,583.9191,477.0533,581.7935,476.4346L581.7935,476.4346L459.41885,440.81058C457.29343,440.1918,456.07187,437.96707,456.6907,435.84152C457.30936,433.71616,459.5341,432.4946,461.65976,433.11337 Z"/>
</g>
</g>
</g>
</svg>