<?xml version="1.0" encoding="utf-8"?>
<svg xmlns="http://www.w3.org/2000/svg" xmlns:xlink="http://www.w3.org/1999/xlink" version= "1.1" width="600px" height="600px" viewBox="340 100 600 600">
<g id="layer1">
<g>
<g style="fill:rgb(0,0,0); fill-opacity:1.0; stroke-linejoin: miter">
<path d="M449.86966,274.25955L440.57388,280.80737L443.62778,285.22537L451.85406,279.55432L478.69763,280.14288L476.61957,374.92017L444.22736,374.20996L444.69095,353.065L450.6974,345.995L447.18045,342.16696L439.49155,350.70047L438.86353,379.34363L481.75323,380.284L484.06146,275.00922L449.86966,274.25955 Z"/>
</g>
</g>
<g>
<g style="fill:rgb(0,0,0); fill-opacity:1.0; stroke-linejoin: miter">
<path d="M566.5113,383.1865Q573.626,383.1865,578.7378,387.72253Q583.8844,392.19217,583.9127,398.63745Q583.941,405.0827,578.8342,409.695Q573.72705,414.20963,566.5493,414.24112L540.9148,414.35358L540.77856,383.29916L566.4131,383.1867Q566.4623,383.1865,566.5113,383.1865 Z M566.5166,377.7177Q566.4529,377.7177,566.3891,377.718L538.0202,377.84247L538.0204,377.8913L535.2861,377.9033L535.59283,447.82455L541.0615,447.80057L540.9388,419.8223L566.57336,419.70984Q576.0459,419.66827,582.7083,413.48663Q589.41956,407.30478,589.3814,398.61343Q589.34326,389.92212,582.57806,383.79938Q575.9069,377.7177,566.5166,377.7177 Z"/>
</g>
</g>
<g style="fill:rgb(71,58,79); fill-opacity:1.0; stroke-linejoin: miter">
<path d="M503.70374,337.12946L505.52454,337.12994L507.34537,337.13043Q507.34537,337.12994,507.34537,337.12946Q505.52454,337.12994,503.70374,337.13043Q503.70374,337.12994,503.70374,337.12946"/>
</g>
<g>
<g style="fill:rgb(0,0,0); fill-opacity:1.0; stroke-linejoin: miter">
<path d="M568.1011,322.3957Q571.51965,322.3957,573.9507,324.55304Q576.4435,326.7467,576.4551,329.79352Q576.4668,332.88727,573.99084,335.09982Q571.56165,337.28876,568.1164,337.30188L555.81177,337.3487L555.75507,322.44257L568.0597,322.39575Q568.0803,322.3957,568.1011,322.3957 Z M636.3782,321.80768L644.8872,340.59576Q644.8872,340.59576,644.8638,340.59583Q644.8638,340.59583,644.84045,340.6194Q643.901,340.96503,642.82874,340.96503Q641.5499,340.96503,640.08203,340.47342Q638.6271,340.0102,637.14795,339.33612Q635.6456,338.73248,634.0968,338.19928Q632.4044,337.6269,630.5542,337.6269Q630.5314,337.6269,630.50867,337.627Q629.94617,337.62915,629.29034,337.74884L636.3782,321.80768 Z M598.0753,322.25824Q603.8941,322.25824,608.036,326.36868Q612.2002,330.50128,612.2224,336.36063Q612.24475,342.21997,608.1121,346.38416Q603.9795,350.5483,598.1202,350.57062L589.07336,350.60504L588.96564,322.2928L598.01245,322.25836Q598.0439,322.25824,598.0753,322.25824 Z M532.9546,322.50623Q538.3678,322.979,542.08484,326.9946Q545.80334,331.03516,545.8243,336.5429Q545.84515,342.02725,542.1575,346.096Q538.4697,350.1413,533.0576,350.65405L532.9505,322.50623 Z M530.3255,322.51587L530.4326,350.66406Q525.0167,350.19247,521.2983,346.17535Q517.5798,342.1348,517.5589,336.65045Q517.53796,331.1427,521.2256,327.07394Q524.9133,323.02866,530.3255,322.51587 Z M686.8297,319.27197L684.2283,319.2819L684.3126,341.47702L661.14246,319.36972L657.95496,319.38184L658.08276,352.96747L660.70776,352.95752L660.5917,322.44214L684.32654,345.13324L684.35596,352.86755L686.9575,352.85764L686.8297,319.27197 Z M638.22095,319.50378L634.5178,319.51788L624.68787,341.63354L624.688,341.65698L624.54834,341.91534L624.5718,341.91522L619.59875,353.1139L622.4815,353.10294L627.05945,342.77295Q627.66425,341.57535,628.2716,341.03397Q629.2459,340.18658,630.72845,340.18658Q631.8407,340.18658,633.2389,340.6635Q634.694,341.17358,636.1024,341.75418Q637.6754,342.45132,639.27124,342.9843Q640.9851,343.533,642.87964,343.533Q642.90466,343.533,642.92957,343.5329Q644.47644,343.52704,645.7638,343.0768Q645.81055,343.0532,645.8574,343.02957Q645.9275,342.98242,645.97437,342.98227L650.5126,352.99628L653.39526,352.98532L648.2427,341.6377Q649.06055,340.97833,649.7141,340.2727Q650.4608,339.40265,651.1139,338.55643L649.02185,336.97064Q648.4155,337.7698,647.73865,338.5224Q647.45874,338.8516,647.1317,339.15753L638.22095,319.50378 Z M598.0767,319.63324Q598.0396,319.63324,598.00244,319.63336L586.3307,319.6778L586.4584,353.24L598.1301,353.19556Q605.0676,353.1692,609.9707,348.22864Q614.8738,343.2881,614.8474,336.35065Q614.82104,329.4132,609.8805,324.51007Q604.9664,319.63324,598.0767,319.63324 Z M568.10284,319.77066Q568.0763,319.77066,568.0497,319.77075L554.4795,319.8224L554.47955,319.84583L553.1437,319.8509L553.2711,353.36627L555.8727,353.35635L555.8218,339.97366L563.6733,339.9438L572.6391,349.42535Q575.1102,352.11127,576.40137,352.64545Q577.60846,353.1411,581.5273,353.1411Q581.6476,353.1411,581.7705,353.14062L581.7605,350.51566Q581.6372,350.5161,581.51715,350.5161Q578.3065,350.5161,577.44666,350.18048Q576.5546,349.8089,574.5542,347.63678L567.2357,339.93024L568.12634,339.92685Q572.6732,339.90955,575.87286,336.9442Q579.07245,333.95547,579.0566,329.78363Q579.0408,325.63525,575.81866,322.69434Q572.61536,319.77066,568.10284,319.77066 Z M532.93335,318.00592L530.30835,318.0159L530.31555,319.89087Q523.8253,320.4312,519.39044,325.22937Q514.9088,330.0746,514.9339,336.66046Q514.95886,343.2229,519.4772,348.03384Q523.9485,352.7981,530.4426,353.28903L530.4497,355.164L533.0747,355.15405L533.06757,353.27905Q539.55774,352.7387,544.0161,347.9405Q548.47424,343.0954,548.4493,336.53296Q548.4242,329.94705,543.92944,325.15942Q539.4346,320.37183,532.9405,319.88092L532.93335,318.00592 Z"/>
</g>
</g>
<g>
<g style="fill:rgb(0,0,0); fill-opacity:1.0; stroke-linejoin: miter">
<path d="M721.1695,413.47858L733.7304,413.53967Q737.2475,413.5568,739.7249,415.79398Q742.25006,418.0553,742.2349,421.16562Q742.21954,424.3238,739.67255,426.56042Q737.19257,428.7564,733.71027,428.7564Q733.6833,428.7564,733.6563,428.7563L721.0955,428.6952L721.1695,413.47858 Z M604.4865,412.57587L613.0062,431.82996Q613.0062,431.82996,612.9823,431.82983Q612.9823,431.82983,612.95825,431.85364Q612.02203,432.1889,610.96027,432.1889Q609.6298,432.1889,608.1022,431.66254Q606.62115,431.17682,605.1172,430.47565Q603.589,429.84613,602.01263,429.28815Q600.269,428.68152,598.3549,428.6722Q598.3414,428.67215,598.3278,428.67215Q597.7649,428.67215,597.11017,428.78577L604.4865,412.57587 Z M800.69794,413.84216L800.55817,442.5761Q795.0339,442.04678,791.2736,437.9132Q787.5135,433.7557,787.54083,428.15714Q787.5682,422.53464,791.36847,418.4139Q795.16644,414.31958,800.69135,413.84216 Z M803.3776,413.8546Q808.90204,414.38394,812.6622,418.51752Q816.4223,422.67502,816.39496,428.29752Q816.36774,433.8961,812.5673,438.0168Q808.767,442.1136,803.23785,442.58914L803.3776,413.8546 Z M602.60785,410.222L592.3776,432.71054L592.3775,432.73447L592.2327,432.99695L592.25665,432.99707L587.08105,444.38464L590.02386,444.39896L594.7884,433.89465Q595.41644,432.6775,596.0412,432.13022Q597.02814,431.28677,598.5111,431.28677Q599.6634,431.28677,601.1151,431.79602Q602.59595,432.3296,604.02856,432.93472Q605.6281,433.66028,607.2523,434.2185Q609.02,434.80133,610.98193,434.81085Q611.0086,434.81097,611.0351,434.81097Q612.58325,434.81097,613.8791,434.37036Q613.92706,434.34668,613.97504,434.32297Q614.0467,434.2757,614.0945,434.2757Q614.09467,434.2757,614.0949,434.2757L618.6388,444.53818L621.5816,444.5525L616.4223,432.92325Q617.263,432.25742,617.93634,431.5429Q618.7063,430.66138,619.38043,429.8033L617.259,428.16602Q616.63293,428.97647,615.93536,429.7387Q615.64667,430.07227,615.3101,430.38168L606.388,410.24036L602.60785,410.222 Z M626.5334,410.31445L626.5204,412.9941L638.2917,413.0514L638.13806,444.63306L640.8177,444.6461L640.9714,413.06442L652.74274,413.1217L652.7558,410.44205L626.5334,410.31445 Z M657.54083,410.46533L657.5278,413.145L669.29913,413.20227L669.14545,444.7839L671.82513,444.79694L671.9788,413.2153L683.7502,413.27258L683.76324,410.59293L657.54083,410.46533 Z M692.11346,410.5857L692.04913,423.79257Q691.01825,424.21823,690.2967,425.00427Q689.16583,426.29077,688.4644,427.84256L690.9234,428.9551Q691.30914,428.07513,692.02716,427.173L692.03265,427.173L691.9465,444.89487L713.57513,445.0001L713.5882,442.32043L694.66315,442.22836L694.74115,426.17435Q695.6259,426.29828,696.2946,426.5408Q697.56,427.09726,698.82526,427.67764Q700.2332,428.42618,701.6423,428.9594Q703.2662,429.5894,705.0367,429.59802Q705.0566,429.5981,705.0765,429.5981Q706.48883,429.5981,707.67096,429.10837Q708.7978,428.63535,709.71063,427.87415Q710.5275,427.18427,711.2978,426.231Q711.972,425.349,712.55023,424.5144L710.30853,423.02008Q709.77826,423.80704,709.17645,424.56976Q708.5987,425.28473,707.97394,425.83197Q707.3974,426.3077,706.6303,426.61502Q705.85114,426.95682,704.9565,426.95682Q703.8692,426.95682,702.6115,426.4519Q701.32184,425.9671,700.03314,425.2909Q698.67255,424.63828,697.28754,424.08124Q696.09357,423.59692,694.75433,423.47076L694.804,413.2785L713.72906,413.37057L713.7421,410.69092L692.11346,410.5857 Z M719.89056,410.79263L719.89044,410.81656L718.5267,410.8099L718.3603,445.02338L721.0159,445.0363L721.08246,431.37482L729.0975,431.41382L738.16583,441.17194Q740.6646,443.9356,741.97784,444.49228Q743.24335,445.0248,747.4543,445.0453L747.4672,442.36566Q743.9742,442.34863,743.0667,441.98535Q742.15936,441.5981,740.13654,439.36316L732.7342,431.43152L733.6434,431.43594Q733.67804,431.43613,733.7127,431.43613Q738.3095,431.43613,741.57733,428.45987Q744.86993,425.4373,744.8907,421.17853Q744.9112,416.94373,741.64813,413.91318Q738.38495,410.8826,733.74347,410.86002L719.89056,410.79263 Z M762.5726,411.00046Q758.17145,411.00046,755.28754,413.5967Q752.3796,416.23834,752.3598,420.3057Q752.34393,423.55957,754.2725,425.50696Q756.8201,428.07944,762.5622,428.10736L769.8116,428.14264Q772.9698,428.15802,775.1368,430.27405Q777.3276,432.41412,777.31256,435.50052Q777.2978,438.53906,775.11066,440.56213Q772.9637,442.59378,769.78973,442.59378Q769.76556,442.59378,769.7413,442.59366L753.5916,442.51508L753.57855,445.19473L769.72833,445.27332Q769.76056,445.27347,769.79266,445.27347Q774.08075,445.27347,777.0153,442.48547Q779.97186,439.70053,779.99225,435.51355Q780.01263,431.30267,777.06,428.39325Q774.10724,425.50775,769.8245,425.4869L762.57513,425.45166Q758.05316,425.42966,756.2673,423.67435Q755.0289,422.49594,755.0395,420.31873Q755.0539,417.35196,757.1684,415.49603Q759.2884,413.65622,762.57513,413.65622Q762.6037,413.65622,762.6325,413.65637L778.75836,413.73483L778.7712,411.0791L762.64545,411.00064Q762.60895,411.00046,762.5726,411.00046 Z M824.0146,411.25137L823.8477,445.53662L826.5274,445.54965L826.679,414.39865L850.7067,437.7717L850.6683,445.6671L853.32404,445.68005L853.4908,411.3948L850.835,411.3819L850.7248,434.03934L827.2685,411.2672L824.0146,411.25137 Z M800.7204,409.2479L800.711,411.16193Q794.0811,411.65604,789.51154,416.51474Q784.89386,421.42102,784.86115,428.1441Q784.82855,434.84323,789.39825,439.79425Q793.92035,444.69714,800.5451,445.25577L800.5358,447.1698L803.2155,447.18283L803.2248,445.2688Q809.8547,444.7747,814.4482,439.9161Q819.04193,435.0097,819.0745,428.31055Q819.10724,421.5875,814.56134,416.66052Q810.01544,411.73358,803.3907,411.17496L803.39996,409.26093L800.7204,409.2479 Z"/>
</g>
</g>
<g>
<g style="fill:rgb(0,0,0); fill-opacity:1.0; stroke-linejoin: miter">
<path d="M750.0266,445.16037L756.52454,485.66232 Z"/>
</g>
<g style="fill:rgb(0,0,0); fill-opacity:1.0; stroke-linejoin: miter">
<path d="M899.94073,523.93225L645.9379,530.7207 Z"/>
</g>
<g style="fill:rgb(0,0,0); fill-opacity:1.0; stroke-linejoin: miter">
<path d="M834.28644,464.5171L834.1463,464.51825Q833.1762,464.62466,832.78766,464.91513L650.0827,588.8036Q647.5283,593.8179,651.7629,593.9623Q652.733,593.8559,653.12164,593.5654L834.857,470.35086Q839.51874,467.14276,834.28644,464.5171 Z"/>
</g>
<g style="fill:rgb(0,0,0); fill-opacity:1.0; stroke-linejoin: miter">
<path d="M649.6851,593.27423L649.6851,593.27423L514.1282,464.7739C512.9966,463.7012,512.94885,461.9143,514.0215,460.7827C515.09424,459.65112,516.8811,459.60336,518.0127,460.67606L518.0127,460.67606L653.56964,589.1764C654.70123,590.2491,654.749,592.036,653.6763,593.1676C652.60364,594.2992,650.8167,594.3469,649.6851,593.27423 Z"/>
</g>
<g style="fill:rgb(0,0,0); fill-opacity:1.0; stroke-linejoin: miter">
<path d="M839.50934,461.98328L514.23035,458.50443Q508.6236,461.89542,514.1529,464.15036L838.07367,467.61526Q845.6055,464.01508,839.50934,461.98328 Z"/>
</g>
<g style="fill:rgb(0,0,0); fill-opacity:1.0; stroke-linejoin: miter">
<path d="M693.73083,560.34656L693.73083,560.34656L653.5228,467.9806C652.9005,466.55096,653.555,464.8875,654.9846,464.26517C656.41425,463.64282,658.0777,464.2973,658.7001,465.72693L658.7001,465.72693L698.90796,558.0929C699.5303,559.5226,698.87585,561.18604,697.44617,561.80835C696.0166,562.43066,694.35315,561.77625,693.73083,560.34656 Z"/>
</g>
<g style="fill:rgb(0,0,0); fill-opacity:1.0; stroke-linejoin: miter">
<path d="M564.3481,508.9952L564.3481,508.9952L589.31305,464.54614C590.0766,463.18668,591.79767,462.70358,593.15717,463.46713C594.5166,464.23068,594.9997,465.95175,594.23615,467.31122L594.23615,467.31122L569.2712,511.76028C568.5076,513.11975,566.78656,513.60284,565.42706,512.8393C564.0676,512.07574,563.58453,510.35468,564.3481,508.9952 Z"/>
</g>
<g style="fill:rgb(0,0,0); fill-opacity:1.0; stroke-linejoin: miter">
<path d="M761.3606,516.80945L761.3606,516.80945L686.5309,467.26172C685.23083,466.4009,684.87476,464.64914,685.7356,463.3491C686.59644,462.04904,688.34814,461.69296,689.6482,462.55377L689.6482,462.55377L764.4779,512.1015C765.77795,512.9623,766.13403,514.71405,765.2732,516.0141C764.41235,517.31415,762.66064,517.6702,761.3606,516.80945 Z"/>
</g>
<g style="fill:rgb(0,0,0); fill-opacity:1.0; stroke-linejoin: miter">
<path d="M709.2363,480.60464L709.2363,480.60464L701.7352,556.48944C701.5818,558.04114,700.1996,559.1746,698.64795,559.02124C697.0963,558.86786,695.96277,557.4857,696.1162,555.934L696.1162,555.934L703.6173,480.04922C703.7706,478.49756,705.15283,477.36404,706.70447,477.51743C708.2561,477.6708,709.38965,479.05298,709.2363,480.60464 Z"/>
</g>
<g style="fill:rgb(0,0,0); fill-opacity:1.0; stroke-linejoin: miter">
<path d="M650.51685,589.30865L650.51685,589.30865L651.5401,468.75745C651.55334,467.19827,652.828,465.94504,654.3872,465.95828C655.94635,465.97153,657.1996,467.2462,657.18634,468.80536L657.18634,468.80536L656.1631,589.35657C656.14984,590.9158,654.8752,592.16895,653.31604,592.15576C651.75684,592.14246,650.5036,590.8678,650.51685,589.30865 Z"/>
</g>
<g style="fill:rgb(0,0,0); fill-opacity:1.0; stroke-linejoin: miter">
<path d="M647.6078,587.75586L647.6078,587.75586L596.337,467.8548C595.72394,466.42114,596.3892,464.76196,597.8228,464.14893C599.25653,463.5359,600.9157,464.2011,601.52875,465.63477L601.52875,465.63477L652.79944,585.5358C653.4125,586.9695,652.7473,588.62866,651.3136,589.2417C649.88,589.85474,648.2208,589.1895,647.6078,587.75586 Z"/>
</g>
<g style="fill:rgb(0,0,0); fill-opacity:1.0; stroke-linejoin: miter">
<path d="M841.0035,464.0465L840.95966,464.04617L724.37134,484.17984Q721.6942,485.3883,721.9324,487.3008Q721.97327,488.99417,724.84656,489.7855L833.9312,470.9563Q841.1453,465.07428,842.1257,464.6356Q842.42365,464.16855,841.0035,464.0465 Z"/>
</g>
<g style="fill:rgb(0,0,0); fill-opacity:1.0; stroke-linejoin: miter">
<path d="M647.7086,584.0763L647.7086,584.0763L624.8338,465.204C624.5391,463.67288,625.54156,462.19284,627.0727,461.8982C628.6038,461.60355,630.0838,462.60593,630.3785,464.13705L630.3785,464.13705L653.2533,583.0094C653.548,584.5405,652.54553,586.0205,651.0144,586.3152C649.4833,586.6098,648.0033,585.6074,647.7086,584.0763 Z"/>
</g>
<g style="fill:rgb(0,0,0); fill-opacity:1.0; stroke-linejoin: miter">
<path d="M759.85095,518.48035L759.85095,518.48035L656.83374,471.96005C655.4127,471.31833,654.7809,469.64615,655.4226,468.2251C656.06433,466.80405,657.7366,466.17227,659.1576,466.814L659.1576,466.814L762.1748,513.3343C763.5958,513.976,764.22766,515.6482,763.58594,517.0693C762.9442,518.4903,761.272,519.1221,759.85095,518.48035 Z"/>
</g>
<g style="fill:rgb(0,0,0); fill-opacity:1.0; stroke-linejoin: miter">
<path d="M566.7087,506.78952L566.7087,506.78952L652.40173,463.33847C653.79236,462.63333,655.49133,463.18906,656.1965,464.5797C656.9016,465.97037,656.3459,467.66934,654.9552,468.37448L654.9552,468.37448L569.26227,511.82553C567.8716,512.53064,566.1726,511.97495,565.46747,510.5843C564.7623,509.19363,565.31805,507.49466,566.7087,506.78952 Z"/>
</g>
<g style="fill:rgb(0,0,0); fill-opacity:1.0; stroke-linejoin: miter">
<path d="M599.7619,542.29315L599.7619,542.29315L650.13416,469.453C651.021,468.17056,652.77954,467.84988,654.062,468.73676C655.3444,469.62363,655.6651,471.38217,654.7782,472.6646L654.7782,472.6646L604.40594,545.50476C603.5191,546.78723,601.76056,547.1079,600.4781,546.221C599.1957,545.3341,598.875,543.57556,599.7619,542.29315 Z"/>
</g>
<g style="fill:rgb(0,0,0); fill-opacity:1.0; stroke-linejoin: miter">
<path d="M675.05896,572.2146L675.05896,572.2146L654.3823,477.81857C654.0487,476.29547,655.01306,474.79028,656.53613,474.45667C658.0592,474.12305,659.56445,475.08734,659.8981,476.61044L659.8981,476.61044L680.5746,571.0065C680.9082,572.5296,679.944,574.0348,678.4209,574.3684C676.8977,574.702,675.3926,573.73773,675.05896,572.2146 Z"/>
</g>
<g style="fill:rgb(0,0,0); fill-opacity:1.0; stroke-linejoin: miter">
<path d="M684.886,529.9447L684.886,529.9447L658.10913,584.57556C657.42285,585.9756,655.73157,586.5543,654.3315,585.86804C652.9314,585.18176,652.3527,583.49054,653.03894,582.09045L653.03894,582.09045L679.8158,527.4596C680.5021,526.05945,682.19336,525.48083,683.5935,526.16705C684.9935,526.8533,685.57227,528.54456,684.886,529.9447 Z"/>
</g>
<g style="fill:rgb(0,0,0); fill-opacity:1.0; stroke-linejoin: miter">
<path d="M665.3959,474.99475L665.3959,474.99475L738.41956,531.51904C739.65247,532.4735,739.8784,534.2467,738.92395,535.47974C737.9696,536.71277,736.1963,536.9386,734.9634,535.98413L734.9634,535.98413L661.9397,479.45984C660.70667,478.50543,660.48083,476.73218,661.43524,475.49918C662.38965,474.26617,664.1629,474.04034,665.3959,474.99475 Z"/>
</g>
<g style="fill:rgb(0,0,0); fill-opacity:1.0; stroke-linejoin: miter">
<path d="M826.09393,472.11703L826.09393,472.11703L749.87146,504.90445C748.4391,505.52057,746.77856,504.85892,746.16235,503.4266C745.54626,501.9943,746.2079,500.33368,747.64026,499.71756L747.64026,499.71756L823.86273,466.93015C825.295,466.31403,826.9556,466.97568,827.5717,468.408C828.1879,469.8403,827.5262,471.50092,826.09393,472.11703 Z"/>
</g>
<g style="fill:rgb(0,0,0); fill-opacity:1.0; stroke-linejoin: miter">
<path d="M722.6741,481.8434L722.6741,481.8434L768.9166,461.9223C770.34863,461.30542,772.00964,461.96616,772.62646,463.39816C773.2434,464.83017,772.58264,466.49115,771.15063,467.10803L771.15063,467.10803L724.9081,487.0291C723.4761,487.646,721.81506,486.98526,721.19824,485.55325C720.5813,484.12125,721.24207,482.4603,722.6741,481.8434 Z"/>
</g>
<g style="fill:rgb(0,0,0); fill-opacity:1.0; stroke-linejoin: miter">
<path d="M521.81836,460.8976L521.81836,460.8976L608.1502,485.50732C609.64966,485.93475,610.51874,487.49686,610.09125,488.99634C609.6639,490.49582,608.10175,491.36487,606.60223,490.93744L606.60223,490.93744L520.2704,466.32773C518.77094,465.9003,517.90186,464.3382,518.32935,462.8387C518.7567,461.33923,520.31885,460.47018,521.81836,460.8976 Z"/>
</g>
</g>
</g>
<g id="layer2">
<g>
<g style="fill:rgb(0,0,0); fill-opacity:1.0; stroke-linejoin: miter">
<path d="M758.1632,315.5321L765.86444,273.98294 Z"/>
</g>
<g style="fill:rgb(0,0,0); fill-opacity:1.0; stroke-linejoin: miter">
<path d="M914.51544,238.1453L653.09924,224.82281 Z"/>
</g>
<g style="fill:rgb(0,0,0); fill-opacity:1.0; stroke-linejoin: miter">
<path d="M845.4205,297.69763L845.2763,297.69296Q844.27997,297.55917,843.887,297.25037L658.8156,165.10901Q656.3099,159.88136,660.6744,159.83824Q661.67084,159.97194,662.0638,160.28078L846.1535,291.70386Q850.87445,295.12402,845.4205,297.69763 Z"/>
</g>
<g style="fill:rgb(0,0,0); fill-opacity:1.0; stroke-linejoin: miter">
<path d="M658.5174,160.495L658.5174,160.495L515.70996,289.45322C514.5179,290.52975,514.424,292.36877,515.5006,293.5609C516.57715,294.75302,518.4163,294.84677,519.60834,293.77026L519.60834,293.77026L662.4159,164.81201C663.60803,163.73557,663.7018,161.89642,662.6251,160.70432C661.54865,159.51222,659.70966,159.41853,658.5174,160.495 Z"/>
</g>
<g style="fill:rgb(0,0,0); fill-opacity:1.0; stroke-linejoin: miter">
<path d="M850.73615,300.43723L515.65894,295.91248Q509.9692,292.28043,515.72,290.096L849.39813,294.6014Q857.065,298.49673,850.73615,300.43723 Z"/>
</g>
<g style="fill:rgb(0,0,0); fill-opacity:1.0; stroke-linejoin: miter">
<path d="M703.05756,195.5038L703.05756,195.5038L659.34705,289.6252C658.6705,291.08206,659.3031,292.8114,660.7599,293.48798C662.21655,294.16452,663.9459,293.53195,664.62256,292.0752L664.62256,292.0752L708.33307,197.95374C709.0096,196.49684,708.37714,194.76747,706.9203,194.09097C705.46356,193.41437,703.7342,194.04688,703.05756,195.5038 Z"/>
</g>
<g style="fill:rgb(0,0,0); fill-opacity:1.0; stroke-linejoin: miter">
<path d="M568.53174,245.16321L568.53174,245.16321L593.13446,291.5618C593.8867,292.9809,595.64734,293.52133,597.0664,292.76883C598.4855,292.01642,599.0259,290.25586,598.2733,288.83682L598.2733,288.83682L573.6709,242.43832C572.91833,241.01926,571.15784,240.47879,569.7388,241.2313C568.3197,241.9837,567.77924,243.74414,568.53174,245.16321 Z"/>
</g>
<g style="fill:rgb(0,0,0); fill-opacity:1.0; stroke-linejoin: miter">
<path d="M771.6214,242.02646L771.6214,242.02646L693.3226,291.1883C691.9623,292.04236,691.5519,293.8376,692.4061,295.19794C693.26025,296.55826,695.0554,296.96866,696.41565,296.1145L696.41565,296.1145L774.7143,246.95264C776.0745,246.09853,776.48505,244.30336,775.6308,242.94305C774.7768,241.58273,772.9816,241.17236,771.6214,242.02646 Z"/>
</g>
<g style="fill:rgb(0,0,0); fill-opacity:1.0; stroke-linejoin: miter">
<path d="M717.0385,278.01294L717.0385,278.01294L711.2048,199.67557C711.0855,198.07367,709.69025,196.87196,708.08844,196.99123C706.4867,197.11046,705.28485,198.50563,705.40424,200.10748L705.40424,200.10748L711.23785,278.44485C711.357,280.04672,712.7522,281.24847,714.354,281.12924C715.9558,281.00995,717.15765,279.61472,717.0385,278.01294 Z"/>
</g>
<g style="fill:rgb(0,0,0); fill-opacity:1.0; stroke-linejoin: miter">
<path d="M659.2753,164.59973L659.2753,164.59973L657.3245,288.77573C657.29926,290.38177,658.5807,291.70422,660.1869,291.72946C661.7927,291.75467,663.11523,290.47318,663.1405,288.86713L663.1405,288.86713L665.0913,164.69112C665.11646,163.08505,663.83496,161.7627,662.2289,161.73735C660.62286,161.7122,659.30035,162.99373,659.2753,164.59973 Z"/>
</g>
<g style="fill:rgb(0,0,0); fill-opacity:1.0; stroke-linejoin: miter">
<path d="M656.2408,166.12639L656.2408,166.12639L600.45056,288.32935C599.78345,289.79056,600.42725,291.5159,601.8885,292.18295C603.3497,292.85004,605.075,292.2063,605.7421,290.74518L605.7421,290.74518L661.53186,168.54213C662.199,167.08092,661.55536,165.35564,660.0942,164.68858C658.633,164.02148,656.9078,164.66519,656.2408,166.12639 Z"/>
</g>
<g style="fill:rgb(0,0,0); fill-opacity:1.0; stroke-linejoin: miter">
<path d="M852.32635,298.34967L852.2813,298.34894L732.71454,274.70825Q729.98755,273.397,730.28064,271.43338Q730.36487,269.69046,733.3437,268.9471L845.2154,291.05734Q852.4981,297.29477,853.49677,297.771Q853.79205,298.25943,852.32635,298.34967 Z"/>
</g>
<g style="fill:rgb(0,0,0); fill-opacity:1.0; stroke-linejoin: miter">
<path d="M656.25287,169.91829L656.25287,169.91829L629.7322,291.76965C629.3905,293.3391,630.386,294.8884,631.95557,295.22998C633.525,295.5716,635.0741,294.57617,635.4158,293.00662L635.4158,293.00662L661.9364,171.15523C662.2781,169.5858,661.28265,168.03665,659.7132,167.69499C658.1436,167.35342,656.59454,168.3488,656.25287,169.91829 Z"/>
</g>
<g style="fill:rgb(0,0,0); fill-opacity:1.0; stroke-linejoin: miter">
<path d="M770.1082,240.26802L770.1082,240.26802L662.85596,285.60947C661.37646,286.23492,660.6842,287.9413,661.3096,289.42075C661.93506,290.9002,663.6416,291.59256,665.12085,290.96707L665.12085,290.96707L772.3732,245.62566C773.8526,245.00017,774.5451,243.29376,773.9195,241.8143C773.294,240.33488,771.5878,239.64256,770.1082,240.26802 Z"/>
</g>
<g style="fill:rgb(0,0,0); fill-opacity:1.0; stroke-linejoin: miter">
<path d="M570.90784,247.49359L570.90784,247.49359L658.07666,294.37796C659.49133,295.13885,661.2549,294.6089,662.0156,293.19424C662.7765,291.77966,662.2466,290.0161,660.83203,289.25528L660.83203,289.25528L573.6633,242.37091C572.24866,241.61002,570.4851,242.14001,569.7241,243.55463C568.96326,244.96921,569.4933,246.73279,570.90784,247.49359 Z"/>
</g>
<g style="fill:rgb(0,0,0); fill-opacity:1.0; stroke-linejoin: miter">
<path d="M605.83307,211.75386L605.83307,211.75386L655.89374,288.0244C656.7752,289.36722,658.5783,289.7413,659.92114,288.8599C661.2639,287.97858,661.63794,286.1755,660.7566,284.83264L660.7566,284.83264L610.69556,208.56203C609.8142,207.21913,608.0111,206.84512,606.6684,207.72653C605.3255,208.60791,604.9515,210.41098,605.83307,211.75386 Z"/>
</g>
<g style="fill:rgb(0,0,0); fill-opacity:1.0; stroke-linejoin: miter">
<path d="M684.12396,182.81589L684.12396,182.81589L660.4773,279.51495C660.0958,281.07516,661.0514,282.64938,662.6117,283.0309C664.1719,283.41245,665.7461,282.4569,666.12756,280.89664L666.12756,280.89664L689.7743,184.19762C690.15576,182.63731,689.2002,181.06317,687.63995,180.68163C686.07965,180.30011,684.50543,181.25562,684.12396,182.81589 Z"/>
</g>
<g style="fill:rgb(0,0,0); fill-opacity:1.0; stroke-linejoin: miter">
<path d="M693.19086,226.59279L693.19086,226.59279L666.9762,169.6634C666.3043,168.20439,664.577,167.56631,663.11804,168.23814C661.65906,168.91002,661.0209,170.63731,661.69275,172.09631L661.69275,172.09631L687.90735,229.02573C688.5792,230.4848,690.30664,231.12283,691.7657,230.45103C693.22455,229.77924,693.86273,228.05183,693.19086,226.59279 Z"/>
</g>
<g style="fill:rgb(0,0,0); fill-opacity:1.0; stroke-linejoin: miter">
<path d="M671.7492,282.6976L671.7492,282.6976L748.3619,226.30585C749.65546,225.35358,749.93225,223.53307,748.98004,222.23947C748.02795,220.94586,746.2074,220.66908,744.9138,221.62132L744.9138,221.62132L668.30115,278.01303C667.00745,278.96518,666.73083,280.7858,667.683,282.07938C668.63513,283.37302,670.4558,283.64975,671.7492,282.6976 Z"/>
</g>
<g style="fill:rgb(0,0,0); fill-opacity:1.0; stroke-linejoin: miter">
<path d="M837.173,289.66656L837.173,289.66656L759.4924,254.00049C758.0328,253.33023,756.30597,253.9703,755.6358,255.43004C754.96564,256.88974,755.6055,258.61646,757.06525,259.28665L757.06525,259.28665L834.74585,294.9527C836.20557,295.623,837.9323,294.98294,838.6025,293.52325C839.2727,292.0635,838.6326,290.3368,837.173,289.66656 Z"/>
</g>
<g style="fill:rgb(0,0,0); fill-opacity:1.0; stroke-linejoin: miter">
<path d="M730.90826,277.07214L730.90826,277.07214L778.0349,298.74057C779.4942,299.41153,781.2214,298.7725,781.8921,297.3131C782.56323,295.8537,781.9242,294.1267,780.4648,293.4557L780.4648,293.4557L733.3383,271.78732C731.87885,271.11633,730.15186,271.75543,729.48096,273.21478C728.80975,274.6741,729.4489,276.40115,730.90826,277.07214 Z"/>
</g>
<g style="fill:rgb(0,0,0); fill-opacity:1.0; stroke-linejoin: miter">
<path d="M523.5332,293.63693L523.5332,293.63693L613.05646,270.44427C614.6114,270.04147,615.54535,268.4544,615.1424,266.89944C614.7397,265.34457,613.1525,264.4106,611.5976,264.81345L611.5976,264.81345L522.0744,288.0061C520.51953,288.40887,519.5855,289.99597,519.9884,291.5509C520.3911,293.1057,521.9783,294.03973,523.5332,293.63693 Z"/>
</g>
</g>
</g>
</svg>