<?xml version="1.0" encoding="utf-8"?>
<svg xmlns="http://www.w3.org/2000/svg" xmlns:xlink="http://www.w3.org/1999/xlink" version= "1.1" width="100px" height="80px" viewBox="590 360 100 80">
<g id="layer1">
<g>
<g style="fill:rgb(0,0,0); fill-opacity:1.0; stroke-linejoin: miter">
<path d="M593.026,362.50037L590.7933,364.03247L591.50757,365.0934L593.4831,363.767L599.87354,363.98547L599.10205,386.54868L591.3906,386.28503L591.5627,381.25113L593.0137,379.58505L592.1874,378.66324L590.33154,380.6729L590.0984,387.49185L600.3089,387.84097L601.1659,362.77872L593.026,362.50037 Z"/>
</g>
</g>
<g>
<g style="fill:rgb(0,0,0); fill-opacity:1.0; stroke-linejoin: miter">
<path d="M620.4838,388.77954Q622.17804,388.8003,623.3821,389.89536Q624.59454,390.97473,624.5825,392.50964Q624.57043,394.04453,623.34094,395.12796Q622.1116,396.18808,620.4023,396.17465L614.2976,396.12662L614.35583,388.7313L620.46045,388.7793Q620.4721,388.77942,620.4838,388.77954 Z M620.5011,387.47726Q620.4859,387.47708,620.4707,387.47696L613.71484,387.4238L613.7147,387.43542L613.06354,387.43027L612.9326,404.08154L614.2349,404.09174L614.2873,397.42892L620.39197,397.47696Q622.6478,397.49475,624.25244,396.04218Q625.86847,394.58966,625.8848,392.5199Q625.9011,390.45013,624.30804,388.97238Q622.7371,387.50464,620.5011,387.47726 Z"/>
</g>
</g>
<g style="fill:rgb(71,58,79); fill-opacity:1.0; stroke-linejoin: miter">
<path d="M605.66187,377.62866L606.0955,377.6341L606.5291,377.63953Q606.5291,377.6394,606.5291,377.63928Q606.0955,377.6341,605.66187,377.6289Q605.66187,377.62878,605.66187,377.62866"/>
</g>
<g>
<g style="fill:rgb(0,0,0); fill-opacity:1.0; stroke-linejoin: miter">
<path d="M621.03986,374.30807Q621.85394,374.31805,622.4266,374.8389Q623.01373,375.36856,623.00757,376.09412Q623.00134,376.83084,622.4053,377.35052Q621.82043,377.8647,621.0,377.85776L618.0697,377.83295L618.0998,374.28323L621.02997,374.30798Q621.0349,374.308,621.03986,374.30807 Z M637.3003,374.36737L639.2718,378.86624Q639.2718,378.86624,639.2662,378.86618Q639.2662,378.86618,639.26056,378.87173Q639.0359,378.9513,638.7805,378.94815Q638.476,378.94443,638.12787,378.82306Q637.7828,378.70853,637.4325,378.54367Q637.0765,378.39554,636.7092,378.26407Q636.3079,378.1228,635.8673,378.1174Q635.8619,378.11734,635.85645,378.11728Q635.7225,378.11615,635.566,378.14273L637.3003,374.36737 Z M628.178,374.36285Q629.56366,374.37985,630.53796,375.37076Q631.51746,376.367,631.5056,377.76233Q631.49384,379.1577,630.4977,380.13724Q629.5014,381.11682,628.1061,381.105L625.95166,381.0868L626.0086,374.3445L628.163,374.3627Q628.1705,374.36276,628.178,374.36285 Z M612.6704,374.23187L612.6704,374.23187Q613.9578,374.3603,614.8311,375.32727Q615.7049,376.30035,615.6938,377.61194Q615.6828,378.918,614.7927,379.8761Q613.9028,380.82864,612.6125,380.93497L612.6691,374.23187 Z M612.044,374.22647L611.98737,380.9297Q610.69904,380.80157,609.8253,379.8341Q608.95166,378.86108,608.96265,377.55505Q608.9738,376.24347,609.8638,375.2853Q610.75366,374.33276,612.044,374.22647 Z M649.3218,373.9109L648.7022,373.90564L648.65753,379.19116L643.2045,373.85913L642.44556,373.85272L642.37787,381.8508L643.0029,381.85605L643.0644,374.58914L648.65015,380.06183L648.6346,381.9037L649.25415,381.90894L649.3218,373.9109 Z M637.74585,373.82416L636.864,373.81668L634.4587,379.05438L634.4586,379.05994L634.4246,379.12106L634.4302,379.1211L633.2132,381.77332L633.8997,381.7791L635.0201,379.33264Q635.1676,379.0492,635.3138,378.92206Q635.54834,378.72314,635.90137,378.72748Q636.1662,378.7307,636.49774,378.84833Q636.8428,378.97406,637.17645,379.11642Q637.549,379.28702,637.9274,379.4186Q638.334,379.55426,638.78516,379.5598Q638.7911,379.55988,638.79706,379.55994Q639.1654,379.56305,639.47327,379.4596Q639.4845,379.4541,639.4957,379.44864Q639.51245,379.43756,639.5236,379.43765L640.5751,381.83554L641.2616,381.84137L640.0677,379.12408Q640.26434,378.96948,640.42206,378.80334Q640.6024,378.59836,640.76044,378.39877L640.2669,378.01505Q640.1202,378.20358,639.95685,378.3808Q639.88916,378.45837,639.8104,378.53024L637.74585,373.82416 Z M628.186,373.7378Q628.1772,373.73767,628.16833,373.7376L625.3888,373.7141L625.3212,381.7066L628.10077,381.7301Q629.7528,381.74405,630.9349,380.5819Q632.1168,379.41974,632.13074,377.76764Q632.1448,376.11557,630.9826,374.9336Q629.8266,373.7579,628.186,373.7378 Z M621.048,373.683Q621.0416,373.68295,621.0353,373.6829L617.80365,373.65558L617.80365,373.66116L617.4855,373.65848L617.4181,381.63986L618.03754,381.64505L618.06445,378.4581L619.9342,378.47388L622.04156,380.75793Q622.6222,381.40475,622.92804,381.53564Q623.21405,381.6572,624.1472,381.66864Q624.1759,381.669,624.20514,381.66925L624.21045,381.04416Q624.18115,381.0439,624.1526,381.04355Q623.38794,381.03418,623.1842,380.95175Q622.97284,380.86066,622.5028,380.3376L620.7826,378.48108L620.9947,378.48285Q622.0775,378.49203,622.8481,377.79523Q623.6188,377.0929,623.62714,376.09937Q623.6355,375.11148,622.8768,374.40176Q622.12256,373.6962,621.048,373.683 Z M612.67816,373.1601L612.05304,373.15482L612.0493,373.60138Q610.5022,373.71106,609.4322,374.8407Q608.3508,375.9814,608.3375,377.54974Q608.32434,379.11255,609.3862,380.27136Q610.4371,381.41888,611.98206,381.55478L611.97833,382.0013L612.6034,382.0066L612.6072,381.5601Q614.15424,381.45035,615.2299,380.32074Q616.3056,379.18,616.31885,377.61725Q616.33215,376.04886,615.27576,374.89566Q614.2194,373.7425,612.67444,373.60666L612.67816,373.1601 Z"/>
</g>
</g>
<g>
<g style="fill:rgb(0,0,0); fill-opacity:1.0; stroke-linejoin: miter">
<path d="M657.22406,396.44443L660.215,396.49564Q661.05237,396.50995,661.6358,397.04993Q662.23065,397.59583,662.21796,398.33643Q662.205,399.0884,661.5919,399.6136Q660.99506,400.12927,660.1658,400.1191Q660.15936,400.11902,660.1529,400.1189L657.162,400.06772L657.22406,396.44443 Z M629.4411,395.8889L631.41364,400.4987Q631.41364,400.4987,631.40796,400.49857Q631.40796,400.49857,631.40216,400.50418Q631.1782,400.58127,630.92535,400.5782Q630.6085,400.57428,630.24634,400.4445Q629.89514,400.32455,629.53906,400.1532Q629.177,399.9988,628.8032,399.86136Q628.3898,399.7118,627.934,399.70398Q627.9308,399.70395,627.9276,399.7039Q627.7935,399.70224,627.63727,399.7274L629.4411,395.8889 Z M676.161,396.76315L676.0439,403.6051Q674.7299,403.46292,673.84656,402.46762Q672.9633,401.4666,672.98615,400.1335Q673.0091,398.79474,673.926,397.82455Q674.8422,396.86078,676.1591,396.76312 Z M676.79913,396.77393Q678.113,396.91605,678.9964,397.9114Q679.87964,398.9124,679.8567,400.25116Q679.83386,401.5843,678.9169,402.55447Q677.99994,403.51892,676.68195,403.61603L676.79913,396.77393 Z M629.00055,395.32288L626.49884,400.6482L626.4988,400.65387L626.4635,400.71594L626.4692,400.71606L625.2034,403.41266L625.9042,403.42465L627.06946,400.9372Q627.2226,400.6492,627.3729,400.52066Q627.6104,400.3227,627.96356,400.32703Q628.238,400.3304,628.58215,400.4559Q628.9332,400.5873,629.27264,400.73557Q629.65137,400.91302,630.03656,401.0507Q630.4558,401.19464,630.923,401.20267Q630.9293,401.20276,630.9356,401.20282Q631.3043,401.20737,631.6142,401.10623Q631.6257,401.10074,631.63715,401.0952Q631.65436,401.08417,631.6658,401.08432Q631.6658,401.08432,631.66583,401.08432L632.71783,403.54135L633.41864,403.55334L632.2239,400.769Q632.4261,400.6129,632.5885,400.44473Q632.7744,400.23706,632.9375,400.03473L632.4371,399.63864Q632.28564,399.8298,632.11725,400.00925Q632.04755,400.08786,631.9665,400.16055L629.9007,395.3383L629.00055,395.32288 Z M634.6977,395.41467L634.68677,396.05273L637.48975,396.10077L637.3609,403.62085L637.999,403.6318L638.12775,396.1117L640.9307,396.1597L640.9416,395.5216L634.6977,395.41467 Z M642.08105,395.54114L642.07007,396.17917L644.873,396.2272L644.74426,403.74722L645.3823,403.75818L645.5111,396.23813L648.314,396.28613L648.32495,395.64807L642.08105,395.54114 Z M650.31335,395.6707L650.2596,398.8155Q650.0129,398.91382,649.8387,399.0989Q649.5657,399.40195,649.3941,399.7694L649.9764,400.04153Q650.07074,399.8333,650.2441,399.62082L650.2458,399.62082L650.1735,403.84024L655.3236,403.92844L655.33453,403.29037L650.82825,403.21323L650.8936,399.39047Q651.10394,399.42255,651.26245,399.48224Q651.56213,399.61847,651.8619,399.76044Q652.19495,399.94278,652.52893,400.07388Q652.9137,400.22858,653.3353,400.2358Q653.34,400.2359,653.3448,400.23596Q653.68115,400.24008,653.96405,400.12692Q654.23376,400.01755,654.45337,399.83896Q654.6498,399.67703,654.836,399.4523Q654.99915,399.24423,655.1393,399.04718L654.60986,398.6848Q654.48126,398.87067,654.3357,399.0505Q654.19617,399.21912,654.04584,399.3476Q653.9071,399.4592,653.7236,399.53015Q653.537,399.60925,653.324,399.60663Q653.065,399.60345,652.767,399.47955Q652.4613,399.36032,652.15643,399.19556Q651.8343,399.03616,651.5061,398.89948Q651.2232,398.78064,650.90466,398.7467L650.94617,396.3198L655.4526,396.39697L655.46356,395.7589L650.31335,395.6707 Z M656.92737,395.80106L656.92725,395.80676L656.6025,395.8012L656.4631,403.94797L657.0954,403.9588L657.15106,400.70578L659.0596,400.73846L661.19055,403.08862Q661.77747,403.754,662.0886,403.8904Q662.38837,404.0209,663.39105,404.03812L663.40204,403.40005Q662.5702,403.38577,662.3552,403.29663Q662.14026,403.20175,661.6651,402.66367L659.9255,400.75327L660.14197,400.75696Q660.1502,400.7571,660.1585,400.7572Q661.2532,400.77063,662.04004,400.07147Q662.8329,399.36133,662.8502,398.3472Q662.8675,397.33884,662.0993,396.60767Q661.3311,395.87646,660.2258,395.85754L656.92737,395.80106 Z M667.0905,395.97513Q666.0425,395.96225,665.3482,396.57214Q664.648,397.19263,664.6314,398.16116Q664.61816,398.93597,665.07166,399.40533Q665.6709,400.02536,667.0381,400.04877L668.7644,400.07834Q669.5163,400.0912,670.0262,400.60138Q670.5416,401.11746,670.52905,401.85236Q670.51666,402.57587,669.98987,403.0512Q669.4728,403.52875,668.71704,403.51947Q668.71124,403.5194,668.70544,403.51932L664.8599,403.45346L664.849,404.09152L668.6945,404.15738Q668.7022,404.1575,668.70984,404.1576Q669.73096,404.17014,670.438,403.5148Q671.15,402.86026,671.16705,401.86322Q671.18427,400.8606,670.4897,400.15915Q669.7949,399.4634,668.77515,399.44592L667.04895,399.4164Q665.9722,399.39795,665.55206,398.97476Q665.2606,398.69052,665.26953,398.17212Q665.28156,397.46564,665.7905,397.02985Q666.3007,396.598,667.08344,396.60757Q667.0903,396.60767,667.0971,396.6078L670.93677,396.6735L670.94763,396.04114L667.1079,395.97537Q667.0992,395.97522,667.0905,395.97513 Z M681.7209,396.21426L681.58105,404.37805L682.2192,404.38895L682.3462,396.97147L687.9997,402.60742L687.9674,404.4874L688.5998,404.49823L688.7396,396.33444L688.10724,396.3236L688.01483,401.71863L682.4957,396.2275L681.7209,396.21426 Z M676.17975,395.66913L676.1719,396.12488Q674.59174,396.22324,673.4894,397.36688Q672.3755,398.52176,672.3481,400.12262Q672.32074,401.71774,673.3945,402.91003Q674.457,404.09076,676.0329,404.24316L676.0251,404.6989L676.6632,404.70984L676.671,404.2541Q678.25116,404.15576,679.3592,403.01218Q680.46747,401.85727,680.4948,400.26212Q680.52216,398.6612,679.454,397.4747Q678.3859,396.28818,676.80994,396.1358L676.81775,395.68005L676.17975,395.66913 Z"/>
</g>
</g>
<g>
<g style="fill:rgb(0,0,0); fill-opacity:1.0; stroke-linejoin: miter">
<path d="M664.0033,404.07303L665.4324,413.73666 Z"/>
</g>
<g style="fill:rgb(0,0,0); fill-opacity:1.0; stroke-linejoin: miter">
<path d="M699.4723,423.26843L638.967,424.14365 Z"/>
</g>
<g style="fill:rgb(0,0,0); fill-opacity:1.0; stroke-linejoin: miter">
<path d="M684.01154,408.92838L683.97815,408.92822Q683.7468,408.95074,683.65344,409.01877L639.7844,437.987Q639.16156,439.1736,640.16956,439.22037Q640.4009,439.19788,640.49426,439.1298L684.1303,410.3192Q685.2499,409.56888,684.01154,408.92838 Z"/>
</g>
<g style="fill:rgb(0,0,0); fill-opacity:1.0; stroke-linejoin: miter">
<path d="M639.67676,439.05048L639.67676,439.05048L607.77167,408.05502C607.5053,407.7963,607.4992,407.37064,607.7579,407.10428C608.0166,406.83792,608.4423,406.8318,608.7086,407.09055L608.7086,407.09055L640.6137,438.08597C640.8801,438.34473,640.8863,438.7704,640.6275,439.0367C640.3688,439.30304,639.9431,439.3092,639.67676,439.05048 Z"/>
</g>
<g style="fill:rgb(0,0,0); fill-opacity:1.0; stroke-linejoin: miter">
<path d="M685.2626,408.3402L607.81433,406.56235Q606.4693,407.35352,607.77936,407.90665L684.90436,409.6772Q686.7084,408.84186,685.2626,408.3402 Z"/>
</g>
<g style="fill:rgb(0,0,0); fill-opacity:1.0; stroke-linejoin: miter">
<path d="M650.26135,431.33792L650.26135,431.33792L640.95636,409.2255C640.8123,408.88327,640.973,408.48904,641.3153,408.34503C641.65753,408.20096,642.0517,408.36166,642.19574,408.70392L642.19574,408.70392L651.5008,430.81638C651.64484,431.15863,651.48413,431.55283,651.14197,431.6969C650.7997,431.8409,650.40546,431.6802,650.26135,431.33792 Z"/>
</g>
<g style="fill:rgb(0,0,0); fill-opacity:1.0; stroke-linejoin: miter">
<path d="M619.6015,418.73206L619.6015,418.73206L625.6761,408.2202C625.8619,407.89874,626.27313,407.78873,626.59467,407.97452C626.91614,408.1603,627.0262,408.57153,626.8404,408.89304L626.8404,408.89304L620.76575,419.40488C620.57996,419.72635,620.1687,419.83636,619.84717,419.65057C619.5257,419.46478,619.4157,419.05356,619.6015,418.73206 Z"/>
</g>
<g style="fill:rgb(0,0,0); fill-opacity:1.0; stroke-linejoin: miter">
<path d="M666.49316,421.1678L666.49316,421.1678L648.8186,409.15067C648.5115,408.94183,648.4318,408.52365,648.6406,408.21658C648.8494,407.90952,649.2675,407.8298,649.57465,408.03864L649.57465,408.03864L667.24927,420.05585C667.5563,420.2646,667.6359,420.68274,667.4271,420.9898C667.2184,421.29694,666.80023,421.3766,666.49316,421.1678 Z"/>
</g>
<g style="fill:rgb(0,0,0); fill-opacity:1.0; stroke-linejoin: miter">
<path d="M654.18646,412.39423L654.18646,412.39423L652.1788,430.44284C652.1377,430.81186,651.80524,431.07773,651.4362,431.03668C651.06714,430.99564,650.8013,430.66318,650.84235,430.29416L650.84235,430.29416L652.85004,412.2456C652.8911,411.87656,653.2236,411.6107,653.5926,411.6517C653.9616,411.69275,654.22754,412.0252,654.18646,412.39423 Z"/>
</g>
<g style="fill:rgb(0,0,0); fill-opacity:1.0; stroke-linejoin: miter">
<path d="M639.88635,438.10852L639.88635,438.10852L640.4819,409.4047C640.4896,409.03345,640.7968,408.73874,641.1681,408.74646C641.5393,408.75418,641.83405,409.06137,641.8263,409.4326L641.8263,409.4326L641.2308,438.13644C641.2231,438.50772,640.9159,438.8024,640.5446,438.7947C640.1734,438.78702,639.87866,438.4798,639.88635,438.10852 Z"/>
</g>
<g style="fill:rgb(0,0,0); fill-opacity:1.0; stroke-linejoin: miter">
<path d="M639.1982,437.73032L639.1982,437.73032L627.3391,409.0286C627.1973,408.68542,627.3606,408.29227,627.7038,408.15048C628.047,408.0087,628.44,408.17194,628.5818,408.5151L628.5818,408.5151L640.4409,437.21686C640.5827,437.56,640.41943,437.95316,640.07623,438.09494C639.73303,438.23676,639.33997,438.07352,639.1982,437.73032 Z"/>
</g>
<g style="fill:rgb(0,0,0); fill-opacity:1.0; stroke-linejoin: miter">
<path d="M685.61237,408.83588L685.6019,408.8357L657.7801,413.28973Q657.1391,413.56976,657.1902,414.02588Q657.195,414.42923,657.87695,414.62607L683.9081,410.46066Q685.6431,409.08105,685.87787,408.97943Q685.9502,408.86908,685.61237,408.83588 Z"/>
</g>
<g style="fill:rgb(0,0,0); fill-opacity:1.0; stroke-linejoin: miter">
<path d="M639.2329,436.8544L639.2329,436.8544L634.1327,408.48056C634.067,408.1151,634.31006,407.7656,634.67554,407.69992C635.04095,407.63416,635.3905,407.87717,635.4562,408.24265L635.4562,408.24265L640.5564,436.61655C640.6221,436.982,640.3791,437.3315,640.0136,437.3972C639.64813,437.4629,639.29865,437.2199,639.2329,436.8544 Z"/>
</g>
<g style="fill:rgb(0,0,0); fill-opacity:1.0; stroke-linejoin: miter">
<path d="M666.1288,421.56137L666.1288,421.56137L641.73315,410.18277C641.3966,410.02582,641.25104,409.62576,641.408,409.28928C641.565,408.95276,641.965,408.80716,642.3016,408.96417L642.3016,408.96417L666.6972,420.3427C667.0337,420.49966,667.17926,420.89972,667.0223,421.2362C666.8653,421.5727,666.4653,421.71826,666.1288,421.56137 Z"/>
</g>
<g style="fill:rgb(0,0,0); fill-opacity:1.0; stroke-linejoin: miter">
<path d="M620.17004,418.21365L620.17004,418.21365L640.70294,408.11682C641.03613,407.95297,641.4391,408.09024,641.60297,408.42346C641.7667,408.75662,641.6295,409.1596,641.29626,409.3235L641.29626,409.3235L620.7634,419.42038C620.43024,419.58423,620.0273,419.44693,619.8634,419.1137C619.6996,418.7805,619.83685,418.37753,620.17004,418.21365 Z"/>
</g>
<g style="fill:rgb(0,0,0); fill-opacity:1.0; stroke-linejoin: miter">
<path d="M627.9374,426.76462L627.9374,426.76462L640.145,409.5662C640.36,409.26343,640.77966,409.1922,641.0825,409.40714C641.38525,409.62207,641.4565,410.04175,641.24164,410.34457L641.24164,410.34457L629.0338,427.5429C628.8189,427.84573,628.39923,427.91696,628.09644,427.70206C627.79364,427.4871,627.7224,427.0674,627.9374,426.76462 Z"/>
</g>
<g style="fill:rgb(0,0,0); fill-opacity:1.0; stroke-linejoin: miter">
<path d="M645.78046,434.10956L645.78046,434.10956L641.13226,411.57068C641.0573,411.20703,641.2913,410.8514,641.65497,410.7764C642.0187,410.70142,642.37427,410.93542,642.4492,411.29907L642.4492,411.29907L647.0975,433.83798C647.1724,434.20163,646.9384,434.55725,646.57477,434.63223C646.21106,434.7072,645.85547,434.4732,645.78046,434.10956 Z"/>
</g>
<g style="fill:rgb(0,0,0); fill-opacity:1.0; stroke-linejoin: miter">
<path d="M648.24396,424.07254L648.24396,424.07254L641.7081,437.00357C641.54065,437.33502,641.13617,437.4679,640.8048,437.30038C640.4734,437.13287,640.3405,436.72845,640.50806,436.39706L640.50806,436.39706L647.0438,423.46597C647.21136,423.13458,647.6158,423.0017,647.9472,423.16922C648.2786,423.33673,648.41144,423.74115,648.24396,424.07254 Z"/>
</g>
<g style="fill:rgb(0,0,0); fill-opacity:1.0; stroke-linejoin: miter">
<path d="M643.7632,410.93042L643.7632,410.93042L660.9873,424.60373C661.27814,424.8346,661.3267,425.2575,661.0959,425.5483C660.865,425.83914,660.442,425.88776,660.1512,425.65686L660.1512,425.65686L642.9271,411.98358C642.6363,411.75272,642.5877,411.3298,642.81854,411.03897C643.04944,410.74814,643.47235,410.69955,643.7632,410.93042 Z"/>
</g>
<g style="fill:rgb(0,0,0); fill-opacity:1.0; stroke-linejoin: miter">
<path d="M682.03845,410.7142L682.03845,410.7142L663.792,418.29938C663.4491,418.44193,663.0556,418.2795,662.9131,417.93665C662.7705,417.59378,662.9329,417.20023,663.2758,417.0577L663.2758,417.0577L681.5223,409.47256C681.8651,409.32996,682.25867,409.49243,682.4011,409.83527C682.54364,410.17813,682.3812,410.57162,682.03845,410.7142 Z"/>
</g>
<g style="fill:rgb(0,0,0); fill-opacity:1.0; stroke-linejoin: miter">
<path d="M657.38275,412.72842L657.38275,412.72842L668.45264,408.11963C668.7954,407.97693,669.189,408.13913,669.3317,408.4819C669.4744,408.8247,669.31226,409.2183,668.9695,409.36105L668.9695,409.36105L657.8996,413.96985C657.55676,414.11258,657.1632,413.95038,657.0205,413.60757C656.8778,413.26477,657.04,412.87122,657.38275,412.72842 Z"/>
</g>
<g style="fill:rgb(0,0,0); fill-opacity:1.0; stroke-linejoin: miter">
<path d="M609.61426,407.15442L609.61426,407.15442L630.1006,413.2667C630.45636,413.37283,630.65875,413.74734,630.5526,414.10318C630.4464,414.45898,630.0719,414.66138,629.7161,414.55527L629.7161,414.55527L609.2298,408.44293C608.87396,408.33676,608.6716,407.96225,608.7777,407.60645C608.8839,407.25064,609.2584,407.04825,609.61426,407.15442 Z"/>
</g>
</g>
</g>
</svg>